# xmcd
#
# Track frame offsets:
#  150
#  14398
#  23663
#  39198
#  50789
#  62837
#  72892
#  87394
#  97882
#  109171
#
# Disc length: 1620 seconds
#
# Revision: 0
# Processed by: cddbd v1.5.1PL2 Copyright (c) Steve Scherf et al.
# Submitted via: Collectorz.com_Music_Collector 6.9
#
DISCID=7b06520a
DTITLE=Tennessee Ernie Ford - i Love You So Much
DYEAR=1994
DGENRE=Country
TTITLE0=I Love You So Much It Hurts Me
TTITLE1=Black-Eyed Susi
TTITLE2=Cold, Cold Heart
TTITLE3=Now It's All Over
TTITLE4=I Really Don't Want To Know
TTITLE5=Half As Much
TTITLE6=Code Of The Mountains
TTITLE7=Since You've Been Gone
TTITLE8=Don't Rob Another Man's Castle
TTITLE9=Rags And Old Iron
EXTD=
EXTT0=
EXTT1=
EXTT2=
EXTT3=
EXTT4=
EXTT5=
EXTT6=
EXTT7=
EXTT8=
EXTT9=
PLAYORDER=
